<svg width="79" height="85" viewBox="0 0 79 85" fill="none" xmlns="http://www.w3.org/2000/svg">
<g filter="url(#filter0_d_569_71)">
<path d="M14 20C14 15.0294 18.0294 11 23 11H52C56.9706 11 61 15.0294 61 20V49C61 53.9706 56.9706 58 52 58H42.5021C40.6622 58 38.9802 59.0395 38.1574 60.6851V60.6851C36.4029 64.1943 31.4271 64.2831 29.5484 60.8388L29.4205 60.6042C28.5448 58.9989 26.8622 58 25.0336 58H22.785C17.9332 58 14 54.0668 14 49.215V20Z" fill="black"/>
</g>
<path d="M37.5021 32.5721C32.6958 32.5721 25.9298 39.9666 25.9298 44.6372C25.8765 46.7405 27.4958 48 30.2232 48C33.1784 48 35.1344 46.4873 37.5021 46.4873C39.8941 46.4873 41.8561 48 44.781 48C47.4515 48 49.1253 46.7417 49.1253 44.6402C49.0744 39.9727 42.3103 32.5721 37.5021 32.5721ZM28.5882 31.8127C27.9603 29.7263 26.0146 28.3704 24.2512 28.7922C22.4878 29.2141 21.5695 31.2462 22.1977 33.3314C22.8257 35.4226 24.7714 36.7786 26.5348 36.3567C28.2982 35.9349 29.2119 33.8979 28.5882 31.8127ZM33.7173 30.5592C35.5867 30.0695 36.5253 27.6002 35.8065 24.9322C35.0877 22.2643 32.9907 20.6474 31.114 21.0831C29.2446 21.5727 28.306 24.0421 29.0248 26.7101C29.7448 29.3238 31.8401 31.0534 33.7173 30.5592ZM50.7579 28.7934C48.9945 28.4258 47.0488 29.7275 46.4208 31.8139C45.7929 33.9009 46.7085 35.9343 48.4719 36.3561C50.2353 36.7237 52.1731 35.422 52.8089 33.3356C53.4345 31.2462 52.4656 29.2153 50.7579 28.7934ZM41.2869 30.5592C43.1096 31.0489 45.2606 29.3238 45.9794 26.7101C46.6982 24.0963 45.7599 21.5724 43.8902 21.0831C42.0674 20.5934 39.9165 22.3185 39.1977 24.9322C38.4771 27.5459 39.4157 30.0711 41.2869 30.5592Z" fill="#FEC940"/>
<defs>
<filter id="filter0_d_569_71" x="0" y="0" width="79" height="84.3704" filterUnits="userSpaceOnUse" color-interpolation-filters="sRGB">
<feFlood flood-opacity="0" result="BackgroundImageFix"/>
<feColorMatrix in="SourceAlpha" type="matrix" values="0 0 0 0 0 0 0 0 0 0 0 0 0 0 0 0 0 0 127 0" result="hardAlpha"/>
<feOffset dx="2" dy="5"/>
<feGaussianBlur stdDeviation="8"/>
<feComposite in2="hardAlpha" operator="out"/>
<feColorMatrix type="matrix" values="0 0 0 0 0.996078 0 0 0 0 0.788235 0 0 0 0 0.25098 0 0 0 0.33 0"/>
<feBlend mode="normal" in2="BackgroundImageFix" result="effect1_dropShadow_569_71"/>
<feBlend mode="normal" in="SourceGraphic" in2="effect1_dropShadow_569_71" result="shape"/>
</filter>
</defs>
</svg>
