<svg width="32" height="28" viewBox="0 0 32 28" fill="none" xmlns="http://www.w3.org/2000/svg">
<path d="M15.9634 12.0721C11.1571 12.0721 4.3911 19.4666 4.3911 24.1372C4.33781 26.2405 5.95709 27.5 8.68454 27.5C11.6397 27.5 13.5957 25.9873 15.9634 25.9873C18.3554 25.9873 20.3174 27.5 23.2423 27.5C25.9128 27.5 27.5866 26.2417 27.5866 24.1402C27.5357 19.4727 20.7716 12.0721 15.9634 12.0721ZM7.04952 11.3127C6.42156 9.22634 4.47588 7.87037 2.71248 8.29222C0.949086 8.71408 0.0308107 10.7462 0.659021 12.8314C1.28699 14.9226 3.23266 16.2786 4.99606 15.8567C6.75946 15.4349 7.67325 13.3979 7.04952 11.3127ZM12.1786 10.0592C14.048 9.56955 14.9866 7.10018 14.2678 4.43223C13.549 1.76428 11.452 0.147361 9.57533 0.58308C7.70595 1.07274 6.76733 3.54211 7.48613 6.21006C8.20615 8.82376 10.3014 10.5534 12.1786 10.0592ZM29.2192 8.29343C27.4558 7.92581 25.5101 9.22754 24.8821 11.3139C24.2542 13.4009 25.1698 15.4343 26.9332 15.8561C28.6966 16.2238 30.6344 14.922 31.2702 12.8356C31.8958 10.7462 30.9269 8.71529 29.2192 8.29343ZM19.7482 10.0592C21.5709 10.5489 23.7219 8.82376 24.4407 6.21006C25.1595 3.59635 24.2212 1.07243 22.3515 0.58308C20.5287 0.0934236 18.3778 1.81852 17.659 4.43223C16.9384 7.04594 17.877 9.57106 19.7482 10.0592Z" fill="#FF3358"/>
</svg>
