<svg width="47" height="53" viewBox="0 0 47 53" fill="none" xmlns="http://www.w3.org/2000/svg">
<path d="M0 9C0 4.02944 4.02944 0 9 0H38C42.9706 0 47 4.02944 47 9V38C47 42.9706 42.9706 47 38 47H28.5021C26.6622 47 24.9802 48.0395 24.1574 49.6851C22.4029 53.1943 17.4271 53.2831 15.5484 49.8388L15.4205 49.6042C14.5448 47.9989 12.8622 47 11.0336 47H8.78496C3.93316 47 0 43.0668 0 38.215V9Z" fill="black"/>
<path d="M23.2441 21.5721C18.4448 21.5721 11.6887 28.9666 11.6887 33.6372C11.6355 35.7405 13.2524 37 15.9759 37C18.9267 37 20.8798 35.4873 23.2441 35.4873C25.6326 35.4873 27.5917 37 30.5123 37C33.1789 37 34.8503 35.7417 34.8503 33.6402C34.7995 28.9727 28.0452 21.5721 23.2441 21.5721ZM14.3432 20.8127C13.7162 18.7263 11.7734 17.3704 10.0125 17.7922C8.25172 18.2141 7.33478 20.2462 7.96208 22.3314C8.58913 24.4226 10.532 25.7786 12.2928 25.3567C14.0536 24.9349 14.9661 22.8979 14.3432 20.8127ZM19.4649 19.5592C21.3315 19.0695 22.2687 16.6002 21.551 13.9322C20.8332 11.2643 18.7392 9.64736 16.8653 10.0831C14.9987 10.5727 14.0615 13.0421 14.7792 15.7101C15.4982 18.3238 17.5904 20.0534 19.4649 19.5592ZM36.4805 17.7934C34.7197 17.4258 32.7768 18.7275 32.1498 20.8139C31.5227 22.9009 32.437 24.9343 34.1978 25.3561C35.9586 25.7238 37.8936 24.422 38.5285 22.3356C39.1531 20.2462 38.1857 18.2153 36.4805 17.7934ZM27.0233 19.5592C28.8434 20.0489 30.9912 18.3238 31.709 15.7101C32.4267 13.0963 31.4898 10.5724 29.6228 10.0831C27.8027 9.59342 25.6549 11.3185 24.9372 13.9322C24.2176 16.5459 25.1549 19.0711 27.0233 19.5592Z" fill="#FEC940"/>
</svg>
