<svg width="42" height="37" viewBox="0 0 42 37" fill="none" xmlns="http://www.w3.org/2000/svg">
<path d="M23.8931 1.43447C24.0296 0.60667 24.7405 0 25.5736 0C26.1122 0 26.6149 0.254375 26.938 0.686668L28.1517 2.3125H31.8932C32.8053 2.3125 33.6886 2.67816 34.3349 3.32855L35.6204 4.625H39.642C40.5971 4.625 41.3655 5.40186 41.3655 6.35938V8.09375C41.3655 11.2879 38.7946 13.875 35.6204 13.875H30.6436L30.2774 16.0791L22.2342 11.4541L23.8931 1.43447ZM32.1733 4.625C31.5413 4.625 31.0243 5.14242 31.0243 5.78125C31.0243 6.42008 31.5413 6.9375 32.1733 6.9375C32.8053 6.9375 33.3223 6.42008 33.3223 5.78125C33.3223 5.14242 32.8053 4.625 32.1733 4.625ZM29.8752 18.5072V34.6875C29.8752 35.9666 28.8483 37 27.5772 37H25.2791C24.008 37 22.9811 35.9666 22.9811 34.6875V26.3625C21.1929 27.2514 19.3042 27.75 17.2359 27.75C15.1677 27.75 13.2143 27.2514 11.4908 26.3625V34.6875C11.4908 35.9666 10.4639 37 9.19275 37H6.89469C5.62573 37 4.59664 35.9666 4.59664 34.6875V18.052C2.53054 17.2643 0.908259 15.501 0.34782 13.2463L0.069167 12.1262C-0.238686 10.8832 0.509977 9.62578 1.7413 9.25723C2.9722 9.01152 4.22033 9.76309 4.52841 10.9988L4.80705 12.1262C5.06271 13.1523 5.98193 13.81 7.03616 13.81H21.8177L29.8752 18.5072Z" fill="black"/>
</svg>
