<svg width="42" height="37" viewBox="0 0 42 37" fill="none" xmlns="http://www.w3.org/2000/svg">
<path d="M20.0156 3.53631L20.9262 4.55037L21.9105 3.538C24.6586 0.778941 28.4648 -0.476792 32.2055 0.164595C37.8574 1.1347 42 6.17285 42 12.0797V12.5698C42 16.0767 40.5891 19.4316 38.0953 21.823L23.2723 36.0789C22.657 36.6704 21.8449 37 21 37C20.1551 37 19.343 36.6704 18.7277 36.0789L3.90387 21.823C1.4134 19.4316 0 16.0767 0 12.5698V12.0797C0 6.17285 4.14422 1.1347 9.79453 0.164595C13.4613 -0.476792 17.3414 0.778941 20.0156 3.53631C20.0156 3.53716 19.9418 3.53631 20.0156 3.53631ZM20.9262 10.2882L17.2348 6.33341C15.4547 4.57403 12.9281 3.73913 10.4426 4.16503C6.68965 4.80979 3.9375 8.1587 3.9375 12.0797V12.5698C3.9375 14.9528 4.89809 17.2345 6.59039 18.8569L21 32.7156L35.4129 18.8569C37.1027 17.2345 38.0625 14.9528 38.0625 12.5698V12.0797C38.0625 8.1587 35.3063 4.80979 31.5574 4.16503C29.0719 3.73913 26.5453 4.57403 24.7652 6.33341L20.9262 10.2882Z" fill="black"/>
</svg>
