<svg width="42" height="37" viewBox="0 0 42 37" fill="none" xmlns="http://www.w3.org/2000/svg">
<path d="M4.66667 0H7V37H4.66667C2.08906 37 0 34.633 0 31.7143V5.28571C0 2.36701 2.08906 0 4.66667 0ZM9.33333 0H32.6667V37H9.33333V0ZM12.8333 20.6473C12.8333 21.377 13.3557 21.9688 14 21.9688H17.8719V26.4286C17.8719 27.1583 18.3943 27.75 19.0385 27.75H22.8302C23.4745 27.75 23.9969 27.1583 23.9969 26.4286V21.9688H28C28.6443 21.9688 29.1667 21.377 29.1667 20.6473V16.3527C29.1667 15.6228 28.6443 15.0312 28 15.0312H24.0625V10.5714C24.0625 9.84167 23.5401 9.25 22.8958 9.25H19.1042C18.4599 9.25 17.9375 9.84167 17.9375 10.5714V15.0312H14C13.3557 15.0312 12.8333 15.6228 12.8333 16.3527V20.6473ZM37.3333 0H35V37H37.3333C39.9109 37 42 34.633 42 31.7143V5.28571C42 2.36701 39.9073 0 37.3333 0Z" fill="black"/>
</svg>
